<svg version="1" xmlns="http://www.w3.org/2000/svg" height="100%" width="100%" viewBox="0 0 260.000000 260.000000"><path d="M111.5 53.9c-10.1 2.7-14.4 4.4-21 8.7-19.3 12.3-31.3 32.1-33.2 54.5-.4 4.4-.2 6.9.6 7.3.7.5 1.2-.4 1.3-2.6.1-3.1.3-4.6.8-5.8.1-.3.3-1.2.5-2 5.6-27.8 30.6-49.5 58.4-50.6 7-.2 10.9.1 20.6 2 .6.1 3.2 1.2 5.9 2.4s5.1 2.2 5.3 2.2c1.5 0 10.7 7.2 15.5 12.2 6.3 6.4 13.4 19.4 14.4 26.3.3 2.2.8 4.3 1 4.7 1.1 1.7.3 16.9-1.1 22.3-4.9 18.5-17.3 32.1-35.5 38.7-7.6 2.8-22.2 3.2-29.8.8-5.9-1.7-16.2-6.6-16.2-7.6 0-.8 2.2-4.8 2.9-5.4 1.2-1 6.1-9 6.1-9.9 0-.5.3-1.1.8-1.3 1-.5 7.2-9.7 7.2-10.8 0-.6.5-1 1-1 .6 0 1-.7 1-1.5s.5-1.5 1-1.5c.6 0 1-.5 1-1.1 0-.6 1.1-2.5 2.4-4.2 2.9-4.1 3.9-5.7 3.2-5.7-.3 0-14.1 13.6-30.7 30.2l-30 30.3 2.8 2.3c11.1 9.1 26.9 16.9 38.1 18.8 9.2 1.6 27.7 1.2 35.7-.8 6.9-1.6 24-8.8 25.5-10.7.3-.4 1.7-1.4 3.1-2.3 8.6-5.5 18.6-17.2 24.7-28.8 11.8-22.7 11.6-51.1-.5-72.8C183.9 72.6 167.2 59.4 147 54c-9-2.5-26.3-2.5-35.5-.1z" fill="white"/></svg>
